<svg width="26" height="23" viewBox="0 0 26 23" fill="none" xmlns="http://www.w3.org/2000/svg">
<path d="M25.5375 21.2196L23.871 6.21957C23.8331 5.87548 23.6695 5.55751 23.4115 5.32664C23.1536 5.09577 22.8195 4.96827 22.4733 4.96859H18.1339C18.017 3.68774 17.4255 2.49683 16.4757 1.62967C15.5258 0.762511 14.286 0.281738 12.9999 0.281738C11.7137 0.281738 10.474 0.762511 9.52408 1.62967C8.57419 2.49683 7.98276 3.68774 7.86588 4.96859H3.52643C3.18026 4.96827 2.84616 5.09577 2.58822 5.32664C2.33027 5.55751 2.16665 5.87548 2.12874 6.21957L0.462212 21.2196C0.440375 21.4161 0.460243 21.6151 0.520518 21.8034C0.580792 21.9918 0.680118 22.1653 0.81201 22.3127C0.943902 22.46 1.10539 22.5779 1.28594 22.6586C1.46648 22.7394 1.66202 22.7811 1.85979 22.7811H24.1398C24.3376 22.7811 24.5332 22.7394 24.7137 22.6587C24.8943 22.578 25.0558 22.4601 25.1877 22.3127C25.3196 22.1654 25.4189 21.9918 25.4792 21.8035C25.5395 21.6151 25.5594 21.4161 25.5375 21.2196ZM12.9999 1.21859C14.0371 1.21998 15.0376 1.60294 15.8107 2.2945C16.5838 2.98607 17.0754 3.93789 17.1919 4.96859H8.80784C8.92432 3.93789 9.41594 2.98607 10.189 2.2945C10.9621 1.60294 11.9626 1.21998 12.9999 1.21859ZM24.4892 21.6875C24.4454 21.7369 24.3917 21.7764 24.3314 21.8033C24.2712 21.8302 24.2059 21.844 24.1399 21.8436H1.85979C1.79387 21.8436 1.72869 21.8297 1.66851 21.8028C1.60833 21.7759 1.5545 21.7366 1.51054 21.6874C1.46658 21.6383 1.43348 21.5805 1.41339 21.5177C1.3933 21.4549 1.38669 21.3886 1.39397 21.323L3.06061 6.32305C3.07326 6.20837 3.12779 6.1024 3.21375 6.02545C3.29972 5.94851 3.41106 5.90601 3.52643 5.90609H7.84362V9.18734C7.84362 9.31166 7.893 9.43089 7.98091 9.5188C8.06882 9.60671 8.18805 9.65609 8.31237 9.65609C8.43669 9.65609 8.55592 9.60671 8.64383 9.5188C8.73173 9.43089 8.78112 9.31166 8.78112 9.18734V5.90609H17.2186V9.18734C17.2186 9.31166 17.268 9.43089 17.3559 9.5188C17.4438 9.60671 17.563 9.65609 17.6874 9.65609C17.8117 9.65609 17.9309 9.60671 18.0188 9.5188C18.1067 9.43089 18.1561 9.31166 18.1561 9.18734V5.90609H22.4733C22.5887 5.90601 22.7 5.94851 22.786 6.02545C22.8719 6.1024 22.9265 6.20837 22.9391 6.32305L24.6058 21.323C24.6134 21.3886 24.607 21.455 24.5869 21.5179C24.5667 21.5807 24.5334 21.6386 24.4892 21.6875Z" fill="white"/>
</svg>
